<?xml version="1.0" encoding="utf-8"?>
<!-- Generator: Adobe Illustrator 27.4.0, SVG Export Plug-In . SVG Version: 6.00 Build 0)  -->
<svg version="1.1" id="레이어_1" xmlns="http://www.w3.org/2000/svg" xmlns:xlink="http://www.w3.org/1999/xlink" x="0px"
	 y="0px" viewBox="0 0 24 25" style="enable-background:new 0 0 24 25;" xml:space="preserve">
<style type="text/css">
	.st0{fill:#CFCFCF;}
</style>
<g>
	<g>
		<path class="st0" d="M14.6,15.6l-1.1-1.1l-3.7-3.7L8.8,9.8l-3-3L3.1,4.2L1.9,5.5l2.6,2.6c-1,1-1.8,2.3-2.6,3.8
			c-0.1,0.2-0.1,0.4-0.1,0.6c0,0.2,0,0.4,0.1,0.6c2.2,4.7,5.6,7,10.1,7c1.4,0,2.7-0.3,3.8-0.7l3.4,3.4l1.3-1.3l-3-3L14.6,15.6z
			 M11.9,16.6c-2.3,0-4.1-1.8-4.1-4.1c0-0.3,0.1-0.7,0.1-1l1.4,1.4l2.2,2.2l1.4,1.4C12.6,16.6,12.3,16.6,11.9,16.6z"/>
		<path class="st0" d="M22.1,11.9c-2.2-4.7-5.6-7-10.1-7c-1.7,0-3.2,0.3-4.6,1l2.9,2.9c0.5-0.2,1.1-0.4,1.7-0.4
			c2.3,0,4.1,1.8,4.1,4.1c0,0.6-0.1,1.2-0.4,1.7l3.3,3.3c1.2-1.1,2.2-2.6,3.1-4.4C22.3,12.7,22.3,12.3,22.1,11.9z"/>
		<path class="st0" d="M14.5,12.5c0-0.7-0.3-1.4-0.8-1.9c-0.5-0.5-1.2-0.8-1.9-0.8c-0.2,0-0.3,0-0.5,0l3.1,3.1
			C14.5,12.8,14.5,12.7,14.5,12.5z"/>
	</g>
</g>
</svg>
