<svg width="16" height="16" viewBox="0 0 16 16" fill="none" xmlns="http://www.w3.org/2000/svg">
<path fill-rule="evenodd" clip-rule="evenodd" d="M14.6666 7.77775C14.6666 4.09585 11.6818 1.11108 7.99992 1.11108C4.31802 1.11108 1.33325 4.09585 1.33325 7.77775C1.33325 11.4596 4.31802 14.4444 7.99992 14.4444C11.6818 14.4444 14.6666 11.4596 14.6666 7.77775ZM7.99992 3.94442C8.27606 3.94442 8.49992 4.16827 8.49992 4.44442L8.49992 8.44442C8.49992 8.72056 8.27606 8.94442 7.99992 8.94442C7.72378 8.94442 7.49992 8.72056 7.49992 8.44442L7.49992 4.44442C7.49992 4.16827 7.72378 3.94442 7.99992 3.94442ZM7.99992 11.1111C8.36811 11.1111 8.66659 10.8126 8.66659 10.4444C8.66659 10.0762 8.36811 9.77775 7.99992 9.77775C7.63173 9.77775 7.33325 10.0762 7.33325 10.4444C7.33325 10.8126 7.63173 11.1111 7.99992 11.1111Z" fill="#EC2C38"/>
</svg>
